<?xml version="1.0" standalone="no"?>
<!DOCTYPE svg PUBLIC "-//W3C//DTD SVG 20010904//EN"
 "http://www.w3.org/TR/2001/REC-SVG-20010904/DTD/svg10.dtd">
<svg version="1.0" xmlns="http://www.w3.org/2000/svg"
 width="256.000000pt" height="256.000000pt" viewBox="0 0 256.000000 256.000000"
 preserveAspectRatio="xMidYMid meet">
<metadata>
Created by potrace 1.11, written by Peter Selinger 2001-2013
</metadata>
<g transform="translate(0.000000,256.000000) scale(0.100000,-0.100000)"
fill="#000000" stroke="none">
<path d="M1198 2505 c-2 -2 -28 -5 -58 -9 -65 -8 -97 -13 -127 -20 -13 -4 -31
-8 -40 -10 -110 -27 -265 -98 -373 -170 -91 -62 -262 -229 -317 -311 -82 -123
-170 -318 -187 -415 -32 -175 -40 -344 -22 -450 55 -337 207 -601 456 -796 83
-64 116 -85 220 -135 113 -55 171 -76 255 -95 107 -24 191 -31 315 -29 495 12
926 320 1110 795 79 203 96 462 46 700 -25 116 -102 291 -182 412 -63 94 -228
259 -322 322 -125 82 -312 164 -416 181 -17 3 -38 8 -46 10 -45 12 -302 28
-312 20z"/>
</g>
</svg>
